<svg xmlns="http://www.w3.org/2000/svg" viewBox="0 0 10.02 7.75"><defs><style>.cls-1{fill:#8c0010;}</style></defs><g id="Capa_2" data-name="Capa 2"><g id="Capa_1-2" data-name="Capa 1"><path class="cls-1" d="M10,7a2.14,2.14,0,0,1-.18.44.83.83,0,0,1-.65.36,4.83,4.83,0,0,1-.76,0A.84.84,0,0,1,7.68,7c0-.17,0-.34,0-.52H2.36v.4a.88.88,0,0,1-.51.83.84.84,0,0,1-.27.08,6.59,6.59,0,0,1-.77,0A.88.88,0,0,1,0,6.85v-3A1.14,1.14,0,0,1,.39,3a1.69,1.69,0,0,0,.54-.82c.17-.51.37-1,.56-1.5A.89.89,0,0,1,2.4,0H7.76a.9.9,0,0,1,.91.64c.24.63.47,1.26.71,1.88a.59.59,0,0,0,.14.23,1.92,1.92,0,0,1,.39.51c0,.12.08.24.11.36ZM5,6H9.14a.44.44,0,0,0,.45-.47V3.8a2.13,2.13,0,0,0,0-.25A1.16,1.16,0,0,0,9.2,3,.21.21,0,0,0,9,3h-8S1,3,1,3l-.29.28a.84.84,0,0,0-.26.63V5.49a.39.39,0,0,0,0,.15A.45.45,0,0,0,1,6ZM1.24,2.52H5.52a1.46,1.46,0,0,1,2.31-1,1.46,1.46,0,0,1,.59,1h.5l0-.08L8.27.77A.47.47,0,0,0,7.78.43H2.38a.47.47,0,0,0-.49.34l-.31.84Zm.68,3.9H1.54A2.62,2.62,0,0,1,.43,6.31c0,.21,0,.4,0,.6a.44.44,0,0,0,.42.41H1.5A.43.43,0,0,0,1.91,7,4.6,4.6,0,0,0,1.92,6.42Zm6.18,0c0,.18,0,.33,0,.49a.45.45,0,0,0,.44.41h.61a.43.43,0,0,0,.43-.39c0-.2,0-.41,0-.61a1.53,1.53,0,0,1-.26.08c-.2,0-.4,0-.6,0ZM8,2.52a1,1,0,0,0-2,0Z"/><path class="cls-1" d="M2,3.81h.74c.19,0,.27.08.27.27v1c0,.18-.08.26-.25.26q-.77,0-1.53,0A.22.22,0,0,1,1,5.1c0-.35,0-.69,0-1,0-.17.08-.24.25-.25ZM1.44,4.92H2.61V4.25H1.44Z"/><path class="cls-1" d="M8,3.81h.75c.18,0,.27.08.27.26v1c0,.17-.09.25-.26.25-.5,0-1,0-1.52,0-.18,0-.25-.08-.26-.26v-1c0-.19.08-.27.27-.27ZM7.42,4.92H8.58V4.25H7.42Z"/><path class="cls-1" d="M5,4.48h-1l-.15,0a.22.22,0,0,1-.13-.21.19.19,0,0,1,.16-.19H6a.21.21,0,0,1,.22.16.2.2,0,0,1-.16.25L6,4.48Z"/><path class="cls-1" d="M5,4.71H6c.17,0,.28.14.22.28s-.09.1-.15.14-.08,0-.12,0H4.06c-.19,0-.3-.08-.29-.22s.06-.21.29-.21Z"/></g></g></svg>