<svg xmlns="http://www.w3.org/2000/svg" viewBox="0 0 244.52 37.98"><defs><style>.cls-1{fill:#8c0010;}.cls-2{fill:#1d1d1b;}</style></defs><g id="Capa_2" data-name="Capa 2"><g id="Capa_1-2" data-name="Capa 1"><path class="cls-1" d="M7.75,1.26a10.54,10.54,0,0,1,4,.7,8.35,8.35,0,0,1,3,2.05l-2,2.73a7.63,7.63,0,0,0-2.28-1.66,6.62,6.62,0,0,0-2.77-.55,4.64,4.64,0,0,0-1.48.2,1.61,1.61,0,0,0-.81.54,1.34,1.34,0,0,0-.24.79,1.06,1.06,0,0,0,.48.87,4.21,4.21,0,0,0,1.56.6l2.73.62A7.62,7.62,0,0,1,13.49,9.8a3.81,3.81,0,0,1,1.13,2.88,4.77,4.77,0,0,1-.88,2.92,5.41,5.41,0,0,1-2.44,1.79A9.78,9.78,0,0,1,7.75,18a13.09,13.09,0,0,1-3.1-.36,10.66,10.66,0,0,1-2.66-1,8.73,8.73,0,0,1-2-1.53l2-2.83a6.37,6.37,0,0,0,1.52,1.27,8,8,0,0,0,2,.87,7.67,7.67,0,0,0,2.18.32,5.36,5.36,0,0,0,1.44-.17A1.66,1.66,0,0,0,10,14a1.28,1.28,0,0,0,.28-.81,1.16,1.16,0,0,0-.37-.87,3.23,3.23,0,0,0-1.41-.61l-3-.66A11.71,11.71,0,0,1,3,10.23,4.32,4.32,0,0,1,1.35,8.8,3.9,3.9,0,0,1,.74,6.55a4.59,4.59,0,0,1,.84-2.72A5.44,5.44,0,0,1,4,2,9.32,9.32,0,0,1,7.75,1.26Z"/><path class="cls-1" d="M19,4a2.92,2.92,0,0,1-1.86-.48A1.83,1.83,0,0,1,16.59,2,1.87,1.87,0,0,1,17.17.48,2.92,2.92,0,0,1,19,0a2.93,2.93,0,0,1,1.85.48A1.88,1.88,0,0,1,21.47,2a1.84,1.84,0,0,1-.59,1.51A2.93,2.93,0,0,1,19,4Zm2.09,1.43V17.75H16.94V5.44Z"/><path class="cls-1" d="M29.27,18a9.59,9.59,0,0,1-3.43-.61,6.9,6.9,0,0,1-2.65-1.73l2-2.32a5,5,0,0,0,1.65,1.32,4.83,4.83,0,0,0,2.26.53A3.29,3.29,0,0,0,30.35,15a.74.74,0,0,0,.25-1.26,2.83,2.83,0,0,0-1-.38L27.92,13a6.83,6.83,0,0,1-3.33-1.39,3.17,3.17,0,0,1-1-2.42,3.29,3.29,0,0,1,.63-1.92,4.4,4.4,0,0,1,1.92-1.5,7.72,7.72,0,0,1,3.26-.6,9.35,9.35,0,0,1,3.3.55A5.42,5.42,0,0,1,35,7.31L33,9.58a3.87,3.87,0,0,0-1.53-1.17A4.7,4.7,0,0,0,29.57,8a4,4,0,0,0-1,.11,1.31,1.31,0,0,0-.6.32.67.67,0,0,0,.11,1,3.14,3.14,0,0,0,1.15.4l2.24.44a4.78,4.78,0,0,1,2.73,1.26,3.16,3.16,0,0,1,.83,2.22,3.78,3.78,0,0,1-.64,2.13,4.2,4.2,0,0,1-1.92,1.52A8.09,8.09,0,0,1,29.27,18Z"/><path class="cls-1" d="M46,5.44v3h-10v-3ZM42.37,1.53V13.37a1.62,1.62,0,0,0,.43,1.27A1.73,1.73,0,0,0,44,15a3.4,3.4,0,0,0,1-.14,2.24,2.24,0,0,0,.78-.41l.44,2.59a4.72,4.72,0,0,1-1.55.69,7.66,7.66,0,0,1-1.92.25,6.83,6.83,0,0,1-2.43-.4,3.16,3.16,0,0,1-1.57-1.25,4.37,4.37,0,0,1-.58-2.29V2.68Z"/><path class="cls-1" d="M54,18a7.6,7.6,0,0,1-3.51-.77,5.42,5.42,0,0,1-2.29-2.18,6.94,6.94,0,0,1-.8-3.46,6.93,6.93,0,0,1,.8-3.45A5.42,5.42,0,0,1,50.43,6a7.12,7.12,0,0,1,3.36-.77,6.76,6.76,0,0,1,3.3.75A5.31,5.31,0,0,1,59.17,8a6.21,6.21,0,0,1,.72,3c0,.31,0,.61,0,.9s0,.53-.07.72H50.05V10.39H58l-2,.79a4.1,4.1,0,0,0-.52-2.27,1.86,1.86,0,0,0-1.64-.79,2.4,2.4,0,0,0-1.34.37,2.27,2.27,0,0,0-.84,1.15,5.86,5.86,0,0,0-.28,2,4.91,4.91,0,0,0,.32,2,2.16,2.16,0,0,0,.91,1.09A2.78,2.78,0,0,0,54,15a2.57,2.57,0,0,0,1.48-.37,2.18,2.18,0,0,0,.83-1l3.35,1.13a3.86,3.86,0,0,1-1.2,1.76,5.79,5.79,0,0,1-2,1.1A8.33,8.33,0,0,1,54,18Z"/><path class="cls-1" d="M62.23,17.75V5.44H66l.13,2.39a4.27,4.27,0,0,1,1.66-2,4.61,4.61,0,0,1,2.47-.67,4.5,4.5,0,0,1,2.39.62,3.73,3.73,0,0,1,1.5,1.82,4.09,4.09,0,0,1,2.46-2.16,5.06,5.06,0,0,1,1.68-.28,4.65,4.65,0,0,1,2.16.48,3.55,3.55,0,0,1,1.49,1.46,4.79,4.79,0,0,1,.56,2.42v8.2H78.28V10.51a2.36,2.36,0,0,0-.45-1.65,1.64,1.64,0,0,0-1.22-.47,2.17,2.17,0,0,0-1.12.31,2,2,0,0,0-.78.93,3.85,3.85,0,0,0-.27,1.55v6.57H70.26V10.51a2.31,2.31,0,0,0-.47-1.65,1.64,1.64,0,0,0-1.21-.47,2,2,0,0,0-1.87,1.22,4,4,0,0,0-.29,1.64v6.5Z"/><path class="cls-1" d="M92.27,10a1.91,1.91,0,0,0-.48-1.37,1.71,1.71,0,0,0-1.3-.51,2.38,2.38,0,0,0-1.39.41,2.28,2.28,0,0,0-.8,1.44l-3.54-.84a4.39,4.39,0,0,1,1.82-2.83,7.08,7.08,0,0,1,4.16-1.06,8,8,0,0,1,3.06.53,4.16,4.16,0,0,1,2,1.58,4.64,4.64,0,0,1,.68,2.57v4.51c0,.64.28,1,.86,1a2.28,2.28,0,0,0,.71-.1l-.24,2.39a4.88,4.88,0,0,1-3.5,0,2.49,2.49,0,0,1-1.16-.93,2.81,2.81,0,0,1-.42-1.59V15l.47-.17a2.56,2.56,0,0,1-.63,1.77,3.67,3.67,0,0,1-1.62,1.06,6.35,6.35,0,0,1-2.08.35,5.63,5.63,0,0,1-2.19-.4,3.07,3.07,0,0,1-1.44-1.14,3.23,3.23,0,0,1-.51-1.86,3.13,3.13,0,0,1,.8-2.2A4.53,4.53,0,0,1,88,11.18l4.65-1,0,2.21-2.36.49a2.54,2.54,0,0,0-1.09.44,1,1,0,0,0-.36.84.94.94,0,0,0,.39.82,1.65,1.65,0,0,0,.94.27,2.4,2.4,0,0,0,.8-.13,1.78,1.78,0,0,0,1.14-1,2.22,2.22,0,0,0,.18-.94Z"/><path class="cls-1" d="M111,18a4.67,4.67,0,0,1-2.67-.76,4.8,4.8,0,0,1-1.77-2.17,8.51,8.51,0,0,1-.63-3.43,8.46,8.46,0,0,1,.65-3.49A5.08,5.08,0,0,1,108.4,6a4.83,4.83,0,0,1,2.7-.77,3.61,3.61,0,0,1,2.69,1,4.84,4.84,0,0,1,1.32,2.59l-.39.52V.22h4.18V17.75h-3.74l-.27-4.19.49.37a4.88,4.88,0,0,1-.75,2.14A4.21,4.21,0,0,1,111,18Zm1.45-3.08a2,2,0,0,0,1.22-.38,2.4,2.4,0,0,0,.78-1.15,5.64,5.64,0,0,0,.27-1.87,5.35,5.35,0,0,0-.26-1.76,2.4,2.4,0,0,0-.76-1.11,2,2,0,0,0-1.22-.38,2,2,0,0,0-1.71.8,4.08,4.08,0,0,0-.63,2.52,4.17,4.17,0,0,0,.61,2.53A2,2,0,0,0,112.45,14.92Z"/><path class="cls-1" d="M127.89,18a7.57,7.57,0,0,1-3.51-.77,5.36,5.36,0,0,1-2.29-2.18,6.94,6.94,0,0,1-.8-3.46,6.93,6.93,0,0,1,.8-3.45A5.4,5.4,0,0,1,124.35,6a7.17,7.17,0,0,1,3.36-.77,6.71,6.71,0,0,1,3.3.75A5.18,5.18,0,0,1,133.09,8a6.11,6.11,0,0,1,.73,3c0,.31,0,.61,0,.9s-.05.53-.08.72H124V10.39h7.93l-2,.79a4.1,4.1,0,0,0-.53-2.27,1.85,1.85,0,0,0-1.64-.79,2.42,2.42,0,0,0-1.34.37,2.2,2.2,0,0,0-.83,1.15,5.84,5.84,0,0,0-.29,2,5.09,5.09,0,0,0,.32,2,2.27,2.27,0,0,0,.91,1.09,2.8,2.8,0,0,0,1.43.34,2.61,2.61,0,0,0,1.49-.37,2.18,2.18,0,0,0,.83-1l3.34,1.13a3.84,3.84,0,0,1-1.19,1.76,5.93,5.93,0,0,1-2,1.1A8.31,8.31,0,0,1,127.89,18Z"/><path class="cls-1" d="M143.2,17.75V5.44h3.69l.17,2.66A4.66,4.66,0,0,1,148.46,6a3.54,3.54,0,0,1,2.35-.77,3.73,3.73,0,0,1,.8.08,1.63,1.63,0,0,1,.53.2l-.42,3.44a3.59,3.59,0,0,0-.63-.16,6.07,6.07,0,0,0-.92-.06,3,3,0,0,0-1.38.32,2.4,2.4,0,0,0-1,1,3,3,0,0,0-.39,1.59v6.2Z"/><path class="cls-1" d="M159.62,18a7.57,7.57,0,0,1-3.51-.77,5.36,5.36,0,0,1-2.29-2.18,6.94,6.94,0,0,1-.8-3.46,6.93,6.93,0,0,1,.8-3.45A5.37,5.37,0,0,1,156.09,6a7.12,7.12,0,0,1,3.36-.77,6.76,6.76,0,0,1,3.3.75A5.31,5.31,0,0,1,164.83,8a6.21,6.21,0,0,1,.72,3c0,.31,0,.61,0,.9a5.82,5.82,0,0,1-.08.72h-9.74V10.39h7.92l-2,.79a4,4,0,0,0-.53-2.27,1.83,1.83,0,0,0-1.63-.79,2.43,2.43,0,0,0-1.35.37,2.31,2.31,0,0,0-.83,1.15,5.86,5.86,0,0,0-.28,2,4.91,4.91,0,0,0,.32,2,2.16,2.16,0,0,0,.91,1.09,2.77,2.77,0,0,0,1.42.34,2.61,2.61,0,0,0,1.49-.37,2.18,2.18,0,0,0,.83-1l3.35,1.13a3.86,3.86,0,0,1-1.2,1.76,5.79,5.79,0,0,1-2,1.1A8.37,8.37,0,0,1,159.62,18Z"/><path class="cls-1" d="M173.06,18a9.59,9.59,0,0,1-3.43-.61A7,7,0,0,1,167,15.66l2-2.32a5.17,5.17,0,0,0,1.65,1.32,4.83,4.83,0,0,0,2.26.53,3.29,3.29,0,0,0,1.28-.21.74.74,0,0,0,.25-1.26,2.74,2.74,0,0,0-1-.38L171.71,13a6.83,6.83,0,0,1-3.33-1.39,3.17,3.17,0,0,1-1-2.42A3.29,3.29,0,0,1,168,7.29,4.4,4.4,0,0,1,170,5.79a7.72,7.72,0,0,1,3.26-.6,9.35,9.35,0,0,1,3.3.55,5.42,5.42,0,0,1,2.29,1.57l-2,2.27a3.87,3.87,0,0,0-1.53-1.17A4.7,4.7,0,0,0,173.36,8a4,4,0,0,0-1,.11,1.31,1.31,0,0,0-.6.32.69.69,0,0,0-.2.48.72.72,0,0,0,.31.56,3.14,3.14,0,0,0,1.15.4l2.24.44A4.78,4.78,0,0,1,178,11.57a3.16,3.16,0,0,1,.84,2.22,3.86,3.86,0,0,1-.64,2.13,4.29,4.29,0,0,1-1.93,1.52A8.09,8.09,0,0,1,173.06,18Z"/><path class="cls-1" d="M186.92,18a7.57,7.57,0,0,1-3.51-.77,5.42,5.42,0,0,1-2.29-2.18,6.94,6.94,0,0,1-.8-3.46,6.93,6.93,0,0,1,.8-3.45A5.42,5.42,0,0,1,183.39,6a7.12,7.12,0,0,1,3.36-.77,6.76,6.76,0,0,1,3.3.75A5.31,5.31,0,0,1,192.13,8a6.21,6.21,0,0,1,.72,3c0,.31,0,.61,0,.9a5.82,5.82,0,0,1-.08.72H183V10.39h7.92l-2,.79a4,4,0,0,0-.53-2.27,1.83,1.83,0,0,0-1.63-.79,2.4,2.4,0,0,0-1.34.37,2.27,2.27,0,0,0-.84,1.15,5.86,5.86,0,0,0-.28,2,4.91,4.91,0,0,0,.32,2,2.16,2.16,0,0,0,.91,1.09,2.77,2.77,0,0,0,1.42.34,2.61,2.61,0,0,0,1.49-.37,2.18,2.18,0,0,0,.83-1l3.35,1.13a3.86,3.86,0,0,1-1.2,1.76,5.79,5.79,0,0,1-2,1.1A8.37,8.37,0,0,1,186.92,18Z"/><path class="cls-1" d="M195.19,17.75V5.44h3.69l.18,2.66A4.57,4.57,0,0,1,200.45,6a3.55,3.55,0,0,1,2.35-.77,3.66,3.66,0,0,1,.8.08,1.55,1.55,0,0,1,.53.2l-.42,3.44a3.37,3.37,0,0,0-.63-.16,6,6,0,0,0-.92-.06,3.11,3.11,0,0,0-1.38.32,2.4,2.4,0,0,0-1,1,3,3,0,0,0-.38,1.59v6.2Z"/><path class="cls-1" d="M213.78,5.44h4.33l-4.43,12.31h-5L204.25,5.44h4.41l2.53,9.38Z"/><path class="cls-1" d="M226.18,10a1.91,1.91,0,0,0-.48-1.37,1.69,1.69,0,0,0-1.29-.51,2.38,2.38,0,0,0-1.39.41,2.28,2.28,0,0,0-.8,1.44l-3.54-.84a4.39,4.39,0,0,1,1.82-2.83,7.08,7.08,0,0,1,4.16-1.06,8,8,0,0,1,3.06.53,4.16,4.16,0,0,1,1.95,1.58,4.64,4.64,0,0,1,.68,2.57v4.51c0,.64.28,1,.86,1a2.28,2.28,0,0,0,.71-.1l-.25,2.39a4.2,4.2,0,0,1-1.79.34,4.3,4.3,0,0,1-1.7-.31,2.49,2.49,0,0,1-1.16-.93,2.81,2.81,0,0,1-.42-1.59V15l.47-.17a2.56,2.56,0,0,1-.63,1.77,3.73,3.73,0,0,1-1.62,1.06,6.35,6.35,0,0,1-2.08.35,5.63,5.63,0,0,1-2.19-.4,3.07,3.07,0,0,1-1.44-1.14,3.23,3.23,0,0,1-.51-1.86,3.13,3.13,0,0,1,.8-2.2,4.53,4.53,0,0,1,2.53-1.22l4.65-1,0,2.21-2.36.49a2.54,2.54,0,0,0-1.09.44,1,1,0,0,0-.36.84.94.94,0,0,0,.39.82,1.62,1.62,0,0,0,.94.27,2.4,2.4,0,0,0,.8-.13,1.85,1.85,0,0,0,1.14-1,2.23,2.23,0,0,0,.17-.94Z"/><path class="cls-1" d="M238.74,18a9.59,9.59,0,0,1-3.43-.61,6.9,6.9,0,0,1-2.65-1.73l2-2.32a5,5,0,0,0,1.65,1.32,4.83,4.83,0,0,0,2.26.53,3.29,3.29,0,0,0,1.28-.21.74.74,0,0,0,.25-1.26,2.83,2.83,0,0,0-1-.38L237.39,13a6.83,6.83,0,0,1-3.33-1.39,3.17,3.17,0,0,1-1-2.42,3.29,3.29,0,0,1,.63-1.92,4.4,4.4,0,0,1,1.92-1.5,7.72,7.72,0,0,1,3.26-.6,9.35,9.35,0,0,1,3.3.55,5.42,5.42,0,0,1,2.29,1.57l-2,2.27a3.87,3.87,0,0,0-1.53-1.17A4.7,4.7,0,0,0,239,8a4,4,0,0,0-1,.11,1.31,1.31,0,0,0-.6.32.67.67,0,0,0,.11,1,3.14,3.14,0,0,0,1.15.4l2.24.44a4.78,4.78,0,0,1,2.73,1.26,3.16,3.16,0,0,1,.83,2.22,3.78,3.78,0,0,1-.64,2.13A4.2,4.2,0,0,1,242,17.44,8.09,8.09,0,0,1,238.74,18Z"/><path class="cls-2" d="M3.77,35.14a4.17,4.17,0,0,1-1.86-.43A3,3,0,0,1,.6,33.49l.94-.68a2.28,2.28,0,0,0,.89,1,2.7,2.7,0,0,0,1.42.36A2,2,0,0,0,5,33.88a.84.84,0,0,0,.42-.74.82.82,0,0,0-.19-.53,1.15,1.15,0,0,0-.71-.35l-1.66-.35a2.62,2.62,0,0,1-1.45-.69A1.75,1.75,0,0,1,1,30a1.81,1.81,0,0,1,.33-1,2.34,2.34,0,0,1,.93-.75,3.27,3.27,0,0,1,1.42-.28,3.43,3.43,0,0,1,1.73.4,2.5,2.5,0,0,1,1,1.13l-.93.61a1.68,1.68,0,0,0-.76-.89,2.27,2.27,0,0,0-1.09-.28,2.43,2.43,0,0,0-.86.13,1.3,1.3,0,0,0-.54.39.88.88,0,0,0-.18.54.85.85,0,0,0,.21.56,1.23,1.23,0,0,0,.77.37l1.73.36a2.37,2.37,0,0,1,1.36.64A1.56,1.56,0,0,1,6.53,33a2,2,0,0,1-.35,1.14,2.11,2.11,0,0,1-1,.75A3.56,3.56,0,0,1,3.77,35.14Z"/><path class="cls-2" d="M11.47,35.14a3.57,3.57,0,0,1-1.75-.43,3.05,3.05,0,0,1-1.2-1.24,4.55,4.55,0,0,1,0-3.86A3,3,0,0,1,9.7,28.37a3.31,3.31,0,0,1,1.7-.43,3.12,3.12,0,0,1,1.66.41,2.77,2.77,0,0,1,1,1.13,3.52,3.52,0,0,1,.36,1.6c0,.16,0,.3,0,.43s0,.24,0,.35H8.81v-1h5.11l-.57.11a2.07,2.07,0,0,0-.54-1.53,2,2,0,0,0-1.44-.54,2,2,0,0,0-1.93,1.21,3.36,3.36,0,0,0-.27,1.42A3.26,3.26,0,0,0,9.45,33a2,2,0,0,0,.78.91,2.34,2.34,0,0,0,1.21.31,2.39,2.39,0,0,0,1.24-.29,2.24,2.24,0,0,0,.77-.79l.87.51a2.94,2.94,0,0,1-.67.82,2.84,2.84,0,0,1-1,.53A3.69,3.69,0,0,1,11.47,35.14Z"/><path class="cls-2" d="M19.27,35.14a3,3,0,0,1-2.73-1.67,4,4,0,0,1-.43-1.93,3.87,3.87,0,0,1,.46-2,3.13,3.13,0,0,1,1.2-1.22,3.22,3.22,0,0,1,1.61-.42,2.5,2.5,0,0,1,1.49.44,2.11,2.11,0,0,1,.83,1.18l-.14.09V24.89h1.11V35h-1l-.09-1.68.15-.08a2,2,0,0,1-.47,1,2.37,2.37,0,0,1-.9.65A3,3,0,0,1,19.27,35.14Zm.11-1a2,2,0,0,0,1.15-.33,2.19,2.19,0,0,0,.76-1,3.61,3.61,0,0,0,.27-1.45,3.14,3.14,0,0,0-.27-1.36,1.93,1.93,0,0,0-1.86-1.17,2,2,0,0,0-1.63.72,2.92,2.92,0,0,0-.58,1.91,3.05,3.05,0,0,0,.56,1.91A1.92,1.92,0,0,0,19.38,34.17Z"/><path class="cls-2" d="M28.14,35.14a3.6,3.6,0,0,1-1.75-.43,3.05,3.05,0,0,1-1.2-1.24,4.55,4.55,0,0,1,0-3.86,3,3,0,0,1,1.18-1.24,3.33,3.33,0,0,1,1.7-.43,3.12,3.12,0,0,1,1.66.41,2.77,2.77,0,0,1,1,1.13,3.52,3.52,0,0,1,.36,1.6c0,.16,0,.3,0,.43a3.39,3.39,0,0,1,0,.35h-5.6v-1h5.11L30,31a2.07,2.07,0,0,0-.55-1.53,2,2,0,0,0-1.43-.54,2,2,0,0,0-1.94,1.21,3.36,3.36,0,0,0-.27,1.42A3.41,3.41,0,0,0,26.12,33a2.06,2.06,0,0,0,.78.91,2.34,2.34,0,0,0,1.21.31,2.37,2.37,0,0,0,1.24-.29,2.24,2.24,0,0,0,.77-.79l.87.51a2.78,2.78,0,0,1-.67.82,2.84,2.84,0,0,1-.95.53A3.69,3.69,0,0,1,28.14,35.14Z"/><path class="cls-2" d="M35.73,35.14a4.17,4.17,0,0,1-1.86-.43,3,3,0,0,1-1.31-1.22l.94-.68a2.28,2.28,0,0,0,.89,1,2.7,2.7,0,0,0,1.42.36A2,2,0,0,0,37,33.88a.84.84,0,0,0,.42-.74.82.82,0,0,0-.19-.53,1.15,1.15,0,0,0-.71-.35l-1.66-.35a2.62,2.62,0,0,1-1.45-.69A1.75,1.75,0,0,1,32.93,30a1.81,1.81,0,0,1,.33-1,2.27,2.27,0,0,1,.93-.75,3.27,3.27,0,0,1,1.42-.28,3.43,3.43,0,0,1,1.73.4,2.5,2.5,0,0,1,1,1.13l-.93.61a1.68,1.68,0,0,0-.76-.89,2.27,2.27,0,0,0-1.09-.28,2.43,2.43,0,0,0-.86.13,1.3,1.3,0,0,0-.54.39A.88.88,0,0,0,34,30a.85.85,0,0,0,.21.56,1.23,1.23,0,0,0,.77.37l1.73.36a2.37,2.37,0,0,1,1.36.64A1.56,1.56,0,0,1,38.49,33a2,2,0,0,1-.35,1.14,2.11,2.11,0,0,1-1,.75A3.56,3.56,0,0,1,35.73,35.14Z"/><path class="cls-2" d="M45.26,35V28.07h.9l.15,1.14a2,2,0,0,1,.85-.95,2.63,2.63,0,0,1,1.36-.32l.4,0a1.34,1.34,0,0,1,.37.11l-.2,1a1.59,1.59,0,0,0-.33-.09,3.3,3.3,0,0,0-.51,0,1.8,1.8,0,0,0-.87.25,2,2,0,0,0-.72.76,2.47,2.47,0,0,0-.3,1.28V35Z"/><path class="cls-2" d="M53.58,35.14a3.57,3.57,0,0,1-1.75-.43,3.05,3.05,0,0,1-1.2-1.24,4.55,4.55,0,0,1,0-3.86,3,3,0,0,1,1.18-1.24,3.31,3.31,0,0,1,1.7-.43,3.12,3.12,0,0,1,1.66.41,2.77,2.77,0,0,1,1,1.13,3.52,3.52,0,0,1,.36,1.6c0,.16,0,.3,0,.43s0,.24,0,.35h-5.6v-1H56l-.57.11a2.07,2.07,0,0,0-.54-1.53,2,2,0,0,0-1.44-.54,2.13,2.13,0,0,0-1.17.31,2,2,0,0,0-.76.9,3.36,3.36,0,0,0-.27,1.42A3.26,3.26,0,0,0,51.56,33a2,2,0,0,0,.78.91,2.34,2.34,0,0,0,1.21.31,2.39,2.39,0,0,0,1.24-.29,2.24,2.24,0,0,0,.77-.79l.87.51a2.94,2.94,0,0,1-.67.82,2.8,2.8,0,0,1-1,.53A3.59,3.59,0,0,1,53.58,35.14Z"/><path class="cls-2" d="M61.54,27.94a3.35,3.35,0,0,1,1.27.22,2.8,2.8,0,0,1,.95.64,3.42,3.42,0,0,1,.65,1l-1,.5a2.07,2.07,0,0,0-.68-1,1.81,1.81,0,0,0-1.17-.35,2.2,2.2,0,0,0-1.19.31,2,2,0,0,0-.76.9,3.53,3.53,0,0,0-.26,1.42A3.58,3.58,0,0,0,59.56,33a2,2,0,0,0,.76.91,2.29,2.29,0,0,0,1.19.31,2.43,2.43,0,0,0,.94-.17,1.65,1.65,0,0,0,.65-.48,1.75,1.75,0,0,0,.35-.78l1,.36a3.34,3.34,0,0,1-.65,1.1,2.73,2.73,0,0,1-1,.69,3.19,3.19,0,0,1-1.31.25,3.55,3.55,0,0,1-1.73-.43,3,3,0,0,1-1.19-1.24,4.55,4.55,0,0,1,0-3.86,2.91,2.91,0,0,1,1.19-1.24A3.44,3.44,0,0,1,61.54,27.94Z"/><path class="cls-2" d="M66.43,35V28.07h.9l.15,1.14a2.08,2.08,0,0,1,.85-.95,2.67,2.67,0,0,1,1.37-.32l.39,0a1.16,1.16,0,0,1,.37.11l-.19,1a1.89,1.89,0,0,0-.34-.09,3.3,3.3,0,0,0-.51,0,1.77,1.77,0,0,0-.86.25,1.91,1.91,0,0,0-.73.76,2.48,2.48,0,0,0-.29,1.28V35Z"/><path class="cls-2" d="M74.75,35.14A3.6,3.6,0,0,1,73,34.71a3.05,3.05,0,0,1-1.2-1.24,4.55,4.55,0,0,1,0-3.86A3,3,0,0,1,73,28.37a3.33,3.33,0,0,1,1.7-.43,3.12,3.12,0,0,1,1.66.41,2.77,2.77,0,0,1,1,1.13,3.52,3.52,0,0,1,.36,1.6c0,.16,0,.3,0,.43a3.39,3.39,0,0,1,0,.35h-5.6v-1H77.2l-.57.11a2.07,2.07,0,0,0-.54-1.53,2,2,0,0,0-1.44-.54,2,2,0,0,0-1.93,1.21,3.36,3.36,0,0,0-.27,1.42A3.41,3.41,0,0,0,72.73,33a2.06,2.06,0,0,0,.78.91,2.34,2.34,0,0,0,1.21.31A2.37,2.37,0,0,0,76,33.88a2.24,2.24,0,0,0,.77-.79l.87.51a2.78,2.78,0,0,1-.67.82A2.84,2.84,0,0,1,76,35,3.69,3.69,0,0,1,74.75,35.14Z"/><path class="cls-2" d="M83.89,30.53a1.66,1.66,0,0,0-.41-1.2,1.59,1.59,0,0,0-1.18-.42,2.23,2.23,0,0,0-1.22.31,1.79,1.79,0,0,0-.73,1l-.9-.55a2.41,2.41,0,0,1,1-1.26,3.85,3.85,0,0,1,3.21-.22,2.14,2.14,0,0,1,1,.78A2.35,2.35,0,0,1,85,30.3v3.36c0,.33.17.49.53.49a1.79,1.79,0,0,0,.51-.07L86,35a1.62,1.62,0,0,1-.72.14,1.53,1.53,0,0,1-.72-.16,1.11,1.11,0,0,1-.5-.46,1.55,1.55,0,0,1-.18-.78v-.14l.28,0a1.83,1.83,0,0,1-.57.88,2.66,2.66,0,0,1-.9.5,3.4,3.4,0,0,1-1,.16,3,3,0,0,1-1.14-.21,1.83,1.83,0,0,1-.83-.63,1.7,1.7,0,0,1-.32-1A1.75,1.75,0,0,1,79.92,32a2.85,2.85,0,0,1,1.45-.68l2.74-.54v.91l-2.23.46a2.47,2.47,0,0,0-1,.39.8.8,0,0,0-.33.69.84.84,0,0,0,.34.7,1.52,1.52,0,0,0,1,.27,2.76,2.76,0,0,0,.77-.11,2.22,2.22,0,0,0,.66-.31,1.67,1.67,0,0,0,.45-.54,1.59,1.59,0,0,0,.17-.77Z"/><path class="cls-2" d="M91.56,28.07v1h-5v-1Zm-2.52-2v7a1,1,0,0,0,.29.76,1.11,1.11,0,0,0,.75.25,1.6,1.6,0,0,0,.69-.14,2,2,0,0,0,.53-.37l.39.92a2.34,2.34,0,0,1-.76.46,2.79,2.79,0,0,1-1,.17A2.45,2.45,0,0,1,89,35a1.52,1.52,0,0,1-.73-.59,2,2,0,0,1-.29-1.08V26.41Z"/><path class="cls-2" d="M93.76,26.75a.81.81,0,0,1-.6-.23.85.85,0,0,1-.23-.61.83.83,0,0,1,.23-.6.81.81,0,0,1,.6-.23.85.85,0,0,1,.61.23.83.83,0,0,1,.23.6.79.79,0,0,1-.84.84Zm.56,1.32V35H93.21V28.07Z"/><path class="cls-2" d="M101.48,28.07h1.16L99.76,35H98.65l-2.88-6.93H97l2.19,5.81Z"/><path class="cls-2" d="M108,30.53a1.62,1.62,0,0,0-.42-1.2,1.57,1.57,0,0,0-1.17-.42,2.23,2.23,0,0,0-1.22.31,1.81,1.81,0,0,0-.74,1l-.9-.55a2.48,2.48,0,0,1,1-1.26,3.43,3.43,0,0,1,1.85-.47,3.51,3.51,0,0,1,1.36.25,2.06,2.06,0,0,1,1,.78,2.27,2.27,0,0,1,.36,1.33v3.36c0,.33.17.49.52.49a1.7,1.7,0,0,0,.51-.07l0,.88a1.68,1.68,0,0,1-.72.14,1.53,1.53,0,0,1-.72-.16,1.11,1.11,0,0,1-.5-.46,1.55,1.55,0,0,1-.18-.78v-.14l.28,0a1.83,1.83,0,0,1-.57.88,2.66,2.66,0,0,1-.9.5,3.4,3.4,0,0,1-1,.16,3,3,0,0,1-1.14-.21,1.91,1.91,0,0,1-.84-.63,1.76,1.76,0,0,1-.31-1A1.71,1.71,0,0,1,104,32a2.85,2.85,0,0,1,1.45-.68l2.74-.54v.91l-2.23.46a2.47,2.47,0,0,0-1,.39.8.8,0,0,0-.33.69.84.84,0,0,0,.34.7,1.48,1.48,0,0,0,1,.27,2.81,2.81,0,0,0,.77-.11,2.06,2.06,0,0,0,.65-.31,1.58,1.58,0,0,0,.46-.54,1.71,1.71,0,0,0,.17-.77Z"/><path class="cls-2" d="M114.24,35.14a4.17,4.17,0,0,1-1.86-.43,3.09,3.09,0,0,1-1.31-1.22l1-.68a2.28,2.28,0,0,0,.89,1,2.65,2.65,0,0,0,1.42.36,2,2,0,0,0,1.15-.29.85.85,0,0,0,.41-.74.87.87,0,0,0-.18-.53,1.21,1.21,0,0,0-.72-.35l-1.66-.35a2.66,2.66,0,0,1-1.45-.69,1.74,1.74,0,0,1-.43-1.21,1.87,1.87,0,0,1,.32-1,2.34,2.34,0,0,1,.93-.75,3.3,3.3,0,0,1,1.42-.28,3.43,3.43,0,0,1,1.73.4,2.5,2.5,0,0,1,1.05,1.13l-.92.61a1.69,1.69,0,0,0-.77-.89,2.24,2.24,0,0,0-1.09-.28,2.37,2.37,0,0,0-.85.13,1.18,1.18,0,0,0-.54.39.83.83,0,0,0-.19.54.85.85,0,0,0,.21.56,1.29,1.29,0,0,0,.77.37l1.74.36a2.37,2.37,0,0,1,1.35.64A1.56,1.56,0,0,1,117,33a2,2,0,0,1-.35,1.14,2.11,2.11,0,0,1-1,.75A3.56,3.56,0,0,1,114.24,35.14Z"/><path class="cls-2" d="M129.12,28.07l-3.26,8.09a4.16,4.16,0,0,1-.57,1.08,1.88,1.88,0,0,1-.69.56,2.07,2.07,0,0,1-.88.18,2.65,2.65,0,0,1-.87-.14,2.3,2.3,0,0,1-.7-.35l.31-1a1.84,1.84,0,0,0,.58.37,1.75,1.75,0,0,0,.62.12,1.22,1.22,0,0,0,.68-.22,1.94,1.94,0,0,0,.58-.9l.36-.9-.69-1.65-2.2-5.27h1.26l1.73,4.52.43,1.23.5-1.37,1.62-4.38Z"/><path class="cls-2" d="M139,30.53a1.62,1.62,0,0,0-.42-1.2,1.57,1.57,0,0,0-1.17-.42,2.23,2.23,0,0,0-1.22.31,1.86,1.86,0,0,0-.74,1l-.9-.55a2.48,2.48,0,0,1,1-1.26,3.85,3.85,0,0,1,3.21-.22,2.06,2.06,0,0,1,1,.78,2.27,2.27,0,0,1,.36,1.33v3.36c0,.33.17.49.52.49a1.81,1.81,0,0,0,.52-.07l-.06.88a1.62,1.62,0,0,1-.72.14,1.53,1.53,0,0,1-.72-.16,1.11,1.11,0,0,1-.5-.46,1.55,1.55,0,0,1-.18-.78v-.14l.28,0a1.83,1.83,0,0,1-.57.88,2.66,2.66,0,0,1-.9.5,3.4,3.4,0,0,1-1,.16,3,3,0,0,1-1.14-.21,1.91,1.91,0,0,1-.84-.63A1.88,1.88,0,0,1,135,32a2.85,2.85,0,0,1,1.45-.68l2.74-.54v.91l-2.23.46a2.47,2.47,0,0,0-1,.39.8.8,0,0,0-.33.69.84.84,0,0,0,.34.7,1.48,1.48,0,0,0,1,.27,2.81,2.81,0,0,0,.77-.11,2.22,2.22,0,0,0,.66-.31,1.67,1.67,0,0,0,.45-.54,1.71,1.71,0,0,0,.17-.77Z"/><path class="cls-2" d="M142.78,37.91V28.07h1l.1,1.69-.15-.19a2.37,2.37,0,0,1,.54-.85,2.51,2.51,0,0,1,.87-.58,3.08,3.08,0,0,1,1.11-.2,3,3,0,0,1,1.56.43,3.09,3.09,0,0,1,1.14,1.23,4.12,4.12,0,0,1,.43,1.94,4,4,0,0,1-.44,1.93,3.21,3.21,0,0,1-1.15,1.24,3.12,3.12,0,0,1-1.58.43,2.63,2.63,0,0,1-1.51-.43,2.37,2.37,0,0,1-.92-1.07l.14-.21v4.48Zm3.29-3.74a1.91,1.91,0,0,0,1.59-.72,2.94,2.94,0,0,0,.58-1.91,3,3,0,0,0-.56-1.91,1.89,1.89,0,0,0-1.57-.72,2.08,2.08,0,0,0-1.17.32,2.12,2.12,0,0,0-.77.92,3.13,3.13,0,0,0-.28,1.39,3.3,3.3,0,0,0,.27,1.38,2.11,2.11,0,0,0,.76.92A2,2,0,0,0,146.07,34.17Z"/><path class="cls-2" d="M155.51,30.53a1.62,1.62,0,0,0-.42-1.2,1.57,1.57,0,0,0-1.17-.42,2.23,2.23,0,0,0-1.22.31,1.86,1.86,0,0,0-.74,1l-.9-.55a2.48,2.48,0,0,1,1-1.26,3.85,3.85,0,0,1,3.21-.22,2.06,2.06,0,0,1,1,.78,2.27,2.27,0,0,1,.36,1.33v3.36c0,.33.17.49.52.49a1.81,1.81,0,0,0,.52-.07l-.06.88a1.62,1.62,0,0,1-.72.14,1.53,1.53,0,0,1-.72-.16,1.11,1.11,0,0,1-.5-.46,1.55,1.55,0,0,1-.18-.78v-.14l.28,0a1.83,1.83,0,0,1-.57.88,2.66,2.66,0,0,1-.9.5,3.4,3.4,0,0,1-1,.16,3,3,0,0,1-1.14-.21,1.91,1.91,0,0,1-.84-.63,1.88,1.88,0,0,1,.21-2.33,2.85,2.85,0,0,1,1.45-.68l2.74-.54v.91l-2.23.46a2.47,2.47,0,0,0-1,.39.8.8,0,0,0-.33.69.84.84,0,0,0,.34.7,1.48,1.48,0,0,0,1,.27,2.81,2.81,0,0,0,.77-.11,2.22,2.22,0,0,0,.66-.31,1.67,1.67,0,0,0,.45-.54,1.71,1.71,0,0,0,.17-.77Z"/><path class="cls-2" d="M159.3,35V28.07h.9l.16,1.14a2,2,0,0,1,.85-.95,2.63,2.63,0,0,1,1.36-.32l.4,0a1.17,1.17,0,0,1,.36.11l-.19,1a1.59,1.59,0,0,0-.33-.09,3.36,3.36,0,0,0-.52,0,1.8,1.8,0,0,0-.86.25,2.06,2.06,0,0,0-.73.76,2.58,2.58,0,0,0-.29,1.28V35Z"/><path class="cls-2" d="M168.69,28.07v1h-5v-1Zm-2.52-2v7a1,1,0,0,0,.29.76,1.11,1.11,0,0,0,.75.25,1.6,1.6,0,0,0,.69-.14,2,2,0,0,0,.53-.37l.39.92a2.34,2.34,0,0,1-.76.46,2.79,2.79,0,0,1-1,.17,2.53,2.53,0,0,1-1-.19,1.54,1.54,0,0,1-.72-.59,2,2,0,0,1-.29-1.08V26.41Z"/><path class="cls-2" d="M174.38,30.53a1.66,1.66,0,0,0-.41-1.2,1.59,1.59,0,0,0-1.18-.42,2.23,2.23,0,0,0-1.22.31,1.84,1.84,0,0,0-.73,1l-.9-.55a2.41,2.41,0,0,1,1-1.26,3.47,3.47,0,0,1,1.86-.47,3.51,3.51,0,0,1,1.36.25,2.16,2.16,0,0,1,1,.78,2.35,2.35,0,0,1,.35,1.33v3.36c0,.33.18.49.53.49a1.79,1.79,0,0,0,.51-.07l-.06.88a1.62,1.62,0,0,1-.72.14,1.58,1.58,0,0,1-.72-.16,1.09,1.09,0,0,1-.49-.46,1.55,1.55,0,0,1-.18-.78v-.14l.27,0a1.83,1.83,0,0,1-.57.88,2.48,2.48,0,0,1-.9.5,3.4,3.4,0,0,1-1,.16,3,3,0,0,1-1.13-.21,1.91,1.91,0,0,1-.84-.63,1.88,1.88,0,0,1,.21-2.33,2.77,2.77,0,0,1,1.44-.68l2.74-.54v.91l-2.22.46a2.52,2.52,0,0,0-1,.39.8.8,0,0,0-.33.69.87.87,0,0,0,.34.7,1.52,1.52,0,0,0,1,.27,2.76,2.76,0,0,0,.77-.11,2,2,0,0,0,.66-.31,1.51,1.51,0,0,0,.62-1.31Z"/><path class="cls-2" d="M178.18,35V28.07h1l.07,1.09a2.22,2.22,0,0,1,1-.93,2.75,2.75,0,0,1,1.24-.29,3.06,3.06,0,0,1,1.39.33,2.23,2.23,0,0,1,1,1,2,2,0,0,1,.63-.76,2.82,2.82,0,0,1,.88-.45,3,3,0,0,1,.9-.14,3,3,0,0,1,1.27.27,2.41,2.41,0,0,1,1,.86,2.65,2.65,0,0,1,.39,1.5V35h-1.11V30.68a1.75,1.75,0,0,0-.47-1.36,1.66,1.66,0,0,0-1.16-.41,2,2,0,0,0-1,.26,1.92,1.92,0,0,0-.75.77,2.61,2.61,0,0,0-.28,1.26V35H183V30.68a1.75,1.75,0,0,0-.47-1.36,1.69,1.69,0,0,0-1.17-.41,2.07,2.07,0,0,0-.93.24,2,2,0,0,0-.8.77,2.66,2.66,0,0,0-.31,1.38V35Z"/><path class="cls-2" d="M194.27,35.14a3.57,3.57,0,0,1-1.75-.43,2.93,2.93,0,0,1-1.2-1.24,4.55,4.55,0,0,1,0-3.86,2.89,2.89,0,0,1,1.18-1.24,3.28,3.28,0,0,1,1.7-.43,3.06,3.06,0,0,1,1.65.41,2.72,2.72,0,0,1,1.05,1.13,3.52,3.52,0,0,1,.36,1.6c0,.16,0,.3,0,.43a3.27,3.27,0,0,1-.05.35h-5.59v-1h5.11l-.57.11a2,2,0,0,0-.55-1.53,1.94,1.94,0,0,0-1.43-.54,2.13,2.13,0,0,0-1.17.31,2,2,0,0,0-.76.9,3.36,3.36,0,0,0-.27,1.42,3.26,3.26,0,0,0,.28,1.41,2,2,0,0,0,.78.91,2.34,2.34,0,0,0,1.21.31,2.39,2.39,0,0,0,1.24-.29,2.33,2.33,0,0,0,.77-.79l.87.51a2.94,2.94,0,0,1-.67.82,2.8,2.8,0,0,1-1,.53A3.59,3.59,0,0,1,194.27,35.14Z"/><path class="cls-2" d="M199.36,35V28.07h1l.1,1.56-.18-.16a2.41,2.41,0,0,1,.6-.89,2.1,2.1,0,0,1,.86-.49,3.5,3.5,0,0,1,1-.15,3.18,3.18,0,0,1,1.36.28,2.26,2.26,0,0,1,1,.87,2.66,2.66,0,0,1,.37,1.48V35h-1.11V31a2.1,2.1,0,0,0-.49-1.6,1.73,1.73,0,0,0-1.21-.45,2.28,2.28,0,0,0-1,.23,1.93,1.93,0,0,0-.82.76,2.66,2.66,0,0,0-.33,1.42V35Z"/><path class="cls-2" d="M212,28.07v1h-5v-1Zm-2.52-2v7a1,1,0,0,0,.29.76,1.11,1.11,0,0,0,.75.25,1.6,1.6,0,0,0,.69-.14,2,2,0,0,0,.53-.37l.39.92a2.34,2.34,0,0,1-.76.46,2.79,2.79,0,0,1-1,.17,2.45,2.45,0,0,1-1-.19,1.52,1.52,0,0,1-.73-.59,2,2,0,0,1-.29-1.08V26.41Z"/><path class="cls-2" d="M216.51,27.94a3.39,3.39,0,0,1,1.73.43,2.91,2.91,0,0,1,1.19,1.24,4.55,4.55,0,0,1,0,3.86,3,3,0,0,1-1.19,1.24,3.7,3.7,0,0,1-3.46,0,3.05,3.05,0,0,1-1.2-1.24,4.64,4.64,0,0,1,0-3.86,2.93,2.93,0,0,1,1.2-1.24A3.39,3.39,0,0,1,216.51,27.94Zm0,.95a2.23,2.23,0,0,0-1.21.32,2.09,2.09,0,0,0-.77.91,3.36,3.36,0,0,0-.27,1.42,3.41,3.41,0,0,0,.27,1.41,2,2,0,0,0,.77.91,2.14,2.14,0,0,0,1.21.32,2.11,2.11,0,0,0,1.2-.32,2,2,0,0,0,.77-.91,3.41,3.41,0,0,0,.27-1.41,3.36,3.36,0,0,0-.27-1.42,2.09,2.09,0,0,0-.77-.91A2.19,2.19,0,0,0,216.51,28.89Z"/><path class="cls-2" d="M224.44,35.14a4.17,4.17,0,0,1-1.86-.43,3,3,0,0,1-1.31-1.22l.94-.68a2.28,2.28,0,0,0,.89,1,2.7,2.7,0,0,0,1.42.36,2,2,0,0,0,1.15-.29.84.84,0,0,0,.42-.74.82.82,0,0,0-.19-.53,1.15,1.15,0,0,0-.71-.35l-1.66-.35a2.62,2.62,0,0,1-1.45-.69,1.75,1.75,0,0,1-.44-1.21,1.81,1.81,0,0,1,.33-1,2.34,2.34,0,0,1,.93-.75,3.27,3.27,0,0,1,1.42-.28,3.43,3.43,0,0,1,1.73.4,2.5,2.5,0,0,1,1,1.13l-.93.61a1.68,1.68,0,0,0-.76-.89,2.27,2.27,0,0,0-1.09-.28,2.43,2.43,0,0,0-.86.13,1.3,1.3,0,0,0-.54.39.88.88,0,0,0-.18.54.85.85,0,0,0,.21.56,1.23,1.23,0,0,0,.77.37l1.73.36a2.37,2.37,0,0,1,1.36.64A1.56,1.56,0,0,1,227.2,33a2,2,0,0,1-.35,1.14,2.11,2.11,0,0,1-1,.75A3.56,3.56,0,0,1,224.44,35.14Z"/></g></g></svg>