<svg xmlns="http://www.w3.org/2000/svg" viewBox="0 0 9.56 8.42"><defs><style>.cls-1{fill:#8c0010;}</style></defs><g id="Capa_2" data-name="Capa 2"><g id="Capa_1-2" data-name="Capa 1"><path class="cls-1" d="M9.56,6.23v2h0A.28.28,0,0,1,9,8.1V7.85H.56v.27a.28.28,0,0,1-.28.3A.28.28,0,0,1,0,8.12V6.42A2.52,2.52,0,0,1,.49,5a.37.37,0,0,0,.05-.18c0-1.29,0-2.59,0-3.88C.55.69.61.6.79.55A14.42,14.42,0,0,1,4.3,0,14.61,14.61,0,0,1,8.71.54.31.31,0,0,1,9,.9V4.74A.25.25,0,0,0,9,4.89a2.5,2.5,0,0,1,.42.85C9.5,5.9,9.53,6.07,9.56,6.23ZM8.42,4.31V1.16c0-.09,0-.12-.11-.15A14.37,14.37,0,0,0,5.63.59,14.06,14.06,0,0,0,1.2,1c-.08,0-.1.05-.1.13,0,1,0,2.06,0,3.09v.09l.51-.25A.1.1,0,0,0,1.7,4V2.91a.65.65,0,0,1,.68-.68H3.82a.65.65,0,0,1,.68.68v1h.56v-1a.66.66,0,0,1,.69-.69h1.4a.66.66,0,0,1,.71.71V4a.1.1,0,0,0,0,.08ZM9,6.15V6.1A2,2,0,0,0,7.08,4.48c-1.53,0-3.06,0-4.6,0a1.82,1.82,0,0,0-1.39.63,1.86,1.86,0,0,0-.51,1ZM.57,7.27H9V6.72H.57ZM3.94,3.92v-1c0-.08-.06-.1-.14-.1H2.4c-.11,0-.14,0-.14.14v1Zm3.36,0v-1c0-.08-.06-.1-.13-.1H5.75c-.1,0-.13,0-.13.14v1Z"/></g></g></svg>